<?xml version="1.0" encoding="utf-8"?>
<!-- Generator: Adobe Illustrator 28.0.0, SVG Export Plug-In . SVG Version: 6.00 Build 0)  -->
<svg version="1.1" id="Capa_1" xmlns="http://www.w3.org/2000/svg" xmlns:xlink="http://www.w3.org/1999/xlink" x="0px" y="0px"
	 viewBox="0 0 666 375" style="enable-background:new 0 0 666 375;" xml:space="preserve">
<style type="text/css">
	.st0{fill:#FFFFFF;}
	.st1{fill:none;stroke:#E78080;stroke-width:2;}
	.st2{fill:none;stroke:#FF8080;stroke-width:2;}
	.st3{fill:none;stroke:#E70000;stroke-width:2;}
	.st4{fill:none;stroke:#B997EB;stroke-width:2;}
	.st5{fill:none;stroke:#CCB3FF;stroke-width:2;}
	.st6{fill:none;stroke:#864BEB;stroke-width:2;}
	.st7{fill:none;stroke:#8BC88B;stroke-width:2;}
	.st8{fill:none;stroke:#99E699;stroke-width:2;}
	.st9{fill:none;stroke:#25AF25;stroke-width:2;}
	.st10{fill:none;stroke:#EE8BCA;stroke-width:2;}
	.st11{fill:none;stroke:#FF99CD;stroke-width:2;}
	.st12{fill:none;stroke:#EE2597;stroke-width:2;}
	.st13{fill:#FE0000;}
	.st14{fill:#CF0000;}
	.st15{fill:#9966FF;}
	.st16{fill:#33CC33;}
	.st17{fill:#722FD6;}
	.st18{fill:#169117;}
	.st19{fill:#FF339A;}
	.st20{fill:#DD1694;}
</style>
<path class="st0" d="M237.1,82.3l37.3,37.3c12.5,12.6,25,25.1,37.6,37.6c3.4,3.4,6.1,5.6,8.1,6.7c10.3,5.6,22.5,3.6,30.8-4.4
	c2.4-2.3,4.7-4.6,6.9-6.9c23.4-23.6,47.9-48.2,73.6-73.7c9.9-9.8,11.5-25.3,2.3-36.2c-7.9-9.4-20.4-12-31.5-6.8
	c-2.5,1.1-6.9,4.8-13.1,11c-19,19-37.6,37.6-55.9,56c-0.1,0.1-0.5,0.3-1,0.4l-34.7-34.6c-8.1-8.2-16.3-16.3-24.6-24.4
	c-4.1-4-7.3-6.6-9.5-7.9c-4.5-2.5-9.3-3.5-14.5-3c-20.8,1.8-31.5,26.3-17.8,42.6C233.1,78.3,235.1,80.3,237.1,82.3z"/>
<path class="st0" d="M437.3,91.9c-13.9,13.7-24.2,24-30.8,30.8c-0.8,0.9-1.6,1.8-2.4,2.9c-14.3,13.7-28.1,27.3-41.4,40.8
	c-7.7,7.9-11,17.5-7.6,28.4c1.5,4.8,5,8.9,8.5,12.6c23.4,23.6,46.7,46.9,69.9,70.1c5.3,5.3,11.2,11.9,18.2,14.8
	c12.9,5.2,28.2-1.5,33.7-14.2c1.7-4,2.4-7.8,2.2-11.3c-0.6-7.4-3.6-13.8-9.1-19.2c-20.6-20.2-40.9-40.5-61.1-61l29.5-30.2
	c9.6-9.5,19-18.9,28.4-28.3c5.2-5.3,8.4-9,9.6-11.4c3.7-7.6,3.8-15.2,0.2-23c-6.8-14.6-23.6-19.4-37.5-11.4
	C445,83.9,441.6,87,437.3,91.9z"/>
<path class="st0" d="M248.1,187.2L220.7,215c-11.1,11.3-22.3,22.5-33.5,33.8c-6.1,6.2-9,13-8.7,20.4c0.9,19.1,21.4,31.7,38.4,21.9
	c5.7-3.3,11.9-10.3,17.2-15.6c7.8-7.9,13.9-13.9,18.2-18c4.3-4.1,7.6-7.7,10.1-10.9c3.6-3.1,7.8-7.1,12.6-11.9
	c9.3-9.1,18.5-18.2,27.6-27.1c9.2-9,12.3-20.7,6.7-32.4c-1.3-2.7-4-6.2-8.2-10.3c-26.8-26.8-52.2-52.2-76.2-76.2
	c-5.5-5.5-11.3-8.6-17.4-9.4c-17-2.1-30.5,12.1-28.8,28.9c1.1,10.4,6.6,14.9,15.4,23.8c18.3,18.6,36.2,36.5,53.6,53.7
	c0.2,0.2,0.3,0.4,0.3,0.7C248.2,186.6,248.2,186.9,248.1,187.2z"/>
<path class="st0" d="M332,271.6c0.6,0.2,1.1,0.6,1.6,1c7.9,8,15.9,15.9,23.9,23.9c11.9,11.9,23.8,23.9,35.6,35.9
	c5.1,5.2,10.7,8.8,18,9.2c16.2,0.9,29.9-13.1,27.7-29.4c-0.8-6.4-3.6-11.9-8.3-16.5c-3.9-3.8-7.9-7.6-11.8-11.4l-27.9-27.8
	c-12.1-12.7-24.7-25-37-37.3c-4.7-4.7-8.3-7.7-10.8-8.9c-12.8-6.2-23.7-1.3-33,8.1c-25.7,26.1-51.4,52-77.2,77.7
	c-6.8,6.8-10.4,16.5-7.6,26c2.6,8.9,8.2,15,16.9,18.2c9.3,3.4,20.1,0.5,27-6.4c20.2-20.3,40.4-40.6,60.7-60.8
	C330.6,272.2,331.4,271.7,332,271.6z"/>
<g>
	<path vector-effect="non-scaling-stroke" class="st1" d="M237.1,82.3l37.3,37.3"/>
	<path vector-effect="non-scaling-stroke" class="st2" d="M274.4,119.6c12.5,12.6,25,25.1,37.6,37.6c3.4,3.4,6.1,5.6,8.1,6.7
		c10.3,5.6,22.5,3.6,30.8-4.4c2.4-2.3,4.7-4.6,6.9-6.9c23.4-23.6,47.9-48.2,73.6-73.7c9.9-9.8,11.5-25.3,2.3-36.2
		c-7.9-9.4-20.4-12-31.5-6.8c-2.5,1.1-6.9,4.8-13.1,11c-19,19-37.6,37.6-55.9,56c-0.1,0.1-0.5,0.3-1,0.4"/>
	<path vector-effect="non-scaling-stroke" class="st1" d="M332.2,103.4l-34.7-34.6"/>
	<path vector-effect="non-scaling-stroke" class="st2" d="M297.5,68.7c-8.1-8.2-16.3-16.3-24.6-24.4c-4.1-4-7.3-6.6-9.5-7.9
		c-4.5-2.5-9.3-3.5-14.5-3c-20.8,1.8-31.5,26.3-17.8,42.6c1.9,2.2,3.9,4.3,5.9,6.2"/>
	<path vector-effect="non-scaling-stroke" class="st3" d="M297.5,68.7c-0.3,0.7-0.6,1.4-0.8,2.1c0,0.1,0,0.2,0.1,0.3
		c0,0,0.1,0.1,0.1,0.1c0.5,0.1,0.5,0.2,0.1,0.5c-0.5,0.3-0.9,0.2-1.4-0.1c-0.3-0.2-0.6-0.2-0.8,0c-1.5,1-2.8,1.7-4.1,2
		c-1,0.3-2.8,0.5-5.3,0.7c-1.6,0.1-3.1,0.6-4.6,1.1c-1.1,0.4-2.3,0.6-3.4,0.8c-1.5,0.2-3,0.4-4.6,0.8c-1.5,0.3-3,0.5-4.5,0.6
		c-1.5,0.1-3,0.4-4.5,0.8c-1.3,0.4-2.6,0.6-4,0.8c-4.5,0.5-9,1.4-13.5,2.9c-1.1,0.4-2.2,0.5-3.3,0.5c-1.3,0-2.5,0.3-3.5,0.9
		c-0.3,0.2-0.6,0.2-0.9-0.1c-0.6-0.5-1.2-0.9-1.8-1"/>
	<path vector-effect="non-scaling-stroke" class="st3" d="M274.4,119.6l0.5-1.6c0.1-0.3,0.4-0.5,0.8-0.5c3.1,0.6,5.8,2.1,9.1,2.3
		c8.5,0.6,15.9,0,22.2-1.8c8.6-2.4,17-6.8,25.1-13.3c0.3-0.2,0.4-0.5,0.4-0.8c0-0.3-0.1-0.5-0.2-0.7"/>
	<path vector-effect="non-scaling-stroke" class="st4" d="M437.3,91.9c-13.9,13.7-24.2,24-30.8,30.8c-0.8,0.9-1.6,1.8-2.4,2.9"/>
	<path vector-effect="non-scaling-stroke" class="st5" d="M404.1,125.6c-14.3,13.7-28.1,27.3-41.4,40.8c-7.7,7.9-11,17.5-7.6,28.4
		c1.5,4.8,5,8.9,8.5,12.6c23.4,23.6,46.7,46.9,69.9,70.1c5.3,5.3,11.2,11.9,18.2,14.8c12.9,5.2,28.2-1.5,33.7-14.2
		c1.7-4,2.4-7.8,2.2-11.3c-0.6-7.4-3.6-13.8-9.1-19.2c-20.6-20.2-40.9-40.5-61.1-61"/>
	<path vector-effect="non-scaling-stroke" class="st4" d="M417.4,186.6l29.5-30.2"/>
	<path vector-effect="non-scaling-stroke" class="st5" d="M446.8,156.4c9.6-9.5,19-18.9,28.4-28.3c5.2-5.3,8.4-9,9.6-11.4
		c3.7-7.6,3.8-15.2,0.2-23c-6.8-14.6-23.6-19.4-37.5-11.4c-2.5,1.4-5.9,4.6-10.2,9.5"/>
	<path vector-effect="non-scaling-stroke" class="st6" d="M446.8,156.4c-0.6-2.5-1.1-4.9-1.3-7.3c-0.1-1.2-0.3-2.4-0.6-3.5
		c-0.3-1.2-0.6-2.4-1-3.6c-0.5-1.7-0.8-3.5-1-5.3c-0.3-2.2-0.7-4.6-1.2-7.3c-0.3-1.5-0.7-2.9-1.1-4.2c-0.5-1.5-0.9-3-1.1-4.5
		c-0.2-1.1-0.4-2.1-0.7-3.1c-0.3-1.1-0.4-2.1-0.5-3.1c-0.4-4.2-1.1-8.5-1.9-13.2c-0.1-0.4,0-0.7,0.1-1.1c0.1-0.3,0.1-0.6,0-0.9
		c-0.4-1.2-0.6-2.5-0.6-3.8c0-0.3,0.1-0.7,0.4-0.9l2-2.3c0.4-0.5,0.3-0.7-0.3-0.5l-0.7,0.2"/>
	<path vector-effect="non-scaling-stroke" class="st6" d="M417.4,186.6c-0.8-1.2-1.7-2.3-2.7-3.4c-1.3-1.4-2.3-2.5-2.8-3.3
		c-11.2-16.1-13.8-34.2-7.8-54.2"/>
	<path vector-effect="non-scaling-stroke" class="st7" d="M248.1,187.2L220.7,215"/>
	<path vector-effect="non-scaling-stroke" class="st8" d="M220.7,215c-11.1,11.3-22.3,22.5-33.5,33.8c-6.1,6.2-9,13-8.7,20.4
		c0.9,19.1,21.4,31.7,38.4,21.9c5.7-3.3,11.9-10.3,17.2-15.6"/>
	<path vector-effect="non-scaling-stroke" class="st7" d="M234.2,275.4c7.8-7.9,13.9-13.9,18.2-18c4.3-4.1,7.6-7.7,10.1-10.9"/>
	<path vector-effect="non-scaling-stroke" class="st8" d="M262.5,246.5c3.6-3.1,7.8-7.1,12.6-11.9c9.3-9.1,18.5-18.2,27.6-27.1
		c9.2-9,12.3-20.7,6.7-32.4c-1.3-2.7-4-6.2-8.2-10.3c-26.8-26.8-52.2-52.2-76.2-76.2c-5.5-5.5-11.3-8.6-17.4-9.4
		c-17-2.1-30.5,12.1-28.8,28.9c1.1,10.4,6.6,14.9,15.4,23.8c18.3,18.6,36.2,36.5,53.6,53.7c0.2,0.2,0.3,0.4,0.3,0.7
		c0,0.4,0,0.7-0.1,1"/>
	<path vector-effect="non-scaling-stroke" class="st9" d="M262.5,246.5c4.5-16.5,3.2-31.8-3.8-45.8c-2.5-4.9-5.7-9.4-9.5-13.2
		c-0.3-0.3-0.6-0.4-1-0.2"/>
	<path vector-effect="non-scaling-stroke" class="st9" d="M234.2,275.4c-1.7,0.8-2.7-0.3-2.8-3.3c0-0.2-0.2-0.6-0.5-1.2
		c-0.2-0.3-0.2-0.6-0.1-0.9c0.2-0.7,0.2-1.5,0-2.2c-0.2-0.6-0.3-1.4-0.4-2.2c-0.1-1.5-0.3-3.1-0.7-4.7c-0.4-1.7-0.7-3.4-0.8-5
		c-0.2-1.6-0.4-3.3-0.8-5.1c-1.3-6-2.3-12.7-3.2-20c-0.1-0.5-0.3-1.2-0.6-2.2c-0.2-0.7-0.4-1.4-0.4-2.2c-0.2-4.6-0.6-8.2-1.3-10.9
		c-0.2-0.8-0.8-1-1.9-0.5"/>
	<path vector-effect="non-scaling-stroke" class="st10" d="M332,271.6c0.6,0.2,1.1,0.6,1.6,1c7.9,8,15.9,15.9,23.9,23.9"/>
	<path vector-effect="non-scaling-stroke" class="st11" d="M357.5,296.5c11.9,11.9,23.8,23.9,35.6,35.9c5.1,5.2,10.7,8.8,18,9.2
		c16.2,0.9,29.9-13.1,27.7-29.4c-0.8-6.4-3.6-11.9-8.3-16.5c-3.9-3.8-7.9-7.6-11.8-11.4"/>
	<path vector-effect="non-scaling-stroke" class="st10" d="M418.7,284.3l-27.9-27.8"/>
	<path vector-effect="non-scaling-stroke" class="st11" d="M390.9,256.5c-12.1-12.7-24.7-25-37-37.3c-4.7-4.7-8.3-7.7-10.8-8.9
		c-12.8-6.2-23.7-1.3-33,8.1c-25.7,26.1-51.4,52-77.2,77.7c-6.8,6.8-10.4,16.5-7.6,26c2.6,8.9,8.2,15,16.9,18.2
		c9.3,3.4,20.1,0.5,27-6.4c20.2-20.3,40.4-40.6,60.7-60.8c0.8-0.8,1.6-1.3,2.2-1.4"/>
	<path vector-effect="non-scaling-stroke" class="st12" d="M390.9,256.5c-2.2,0.4-4.4,0.4-6.8-0.1c-3.5-0.7-5.6-1.1-6.3-1.2
		c-17.4-1.3-32.6,4-45.5,15.7c-0.1,0.1-0.2,0.2-0.2,0.4c-0.1,0.2-0.1,0.3-0.1,0.4"/>
	<path vector-effect="non-scaling-stroke" class="st12" d="M418.7,284.3c-1,0.1-1.7-0.1-2.2-0.7c-0.3-0.3-0.7-0.4-1.1-0.4
		c-1,0.2-2.1,0.2-3.2-0.1c-0.4-0.1-0.7,0-1,0.2c-0.5,0.3-0.8,0.3-1.1-0.1c-0.1-0.2-0.4-0.3-0.6-0.2c-0.9,0.4-1.7,0.4-2.6,0
		c-0.3-0.1-0.5-0.1-0.8,0l-0.8,0.5c-0.3,0.2-0.5,0.3-0.8,0.3c-0.6,0.1-1.2,0.4-1.6,0.8c-0.2,0.2-0.5,0.3-0.8,0.4
		c-7.6,1.5-15.2,2.9-22.7,4.2c-5.2,0.9-10.2,2-14.8,3.2c-1.2,0.3-2.4,0.5-3.6,0.6c-1.2,0.1-2.4,0.6-3.6,1.4
		c-0.3,0.2-0.4,0.5-0.1,0.8c0.4,0.4,0.5,0.8,0.3,1.2"/>
</g>
<path class="st13" d="M297.5,68.7c-0.3,0.7-0.6,1.4-0.8,2.1c0,0.1,0,0.2,0.1,0.3c0,0,0.1,0.1,0.1,0.1c0.5,0.1,0.5,0.2,0.1,0.5
	c-0.5,0.3-0.9,0.2-1.4-0.1c-0.3-0.2-0.6-0.2-0.8,0c-1.5,1-2.8,1.7-4.1,2c-1,0.3-2.8,0.5-5.3,0.7c-1.6,0.1-3.1,0.6-4.6,1.1
	c-1.1,0.4-2.3,0.6-3.4,0.8c-1.5,0.2-3,0.4-4.6,0.8c-1.5,0.3-3,0.5-4.5,0.6c-1.5,0.1-3,0.4-4.5,0.8c-1.3,0.4-2.6,0.6-4,0.8
	c-4.5,0.5-9,1.4-13.5,2.9c-1.1,0.4-2.2,0.5-3.3,0.5c-1.3,0-2.5,0.3-3.5,0.9c-0.3,0.2-0.6,0.2-0.9-0.1c-0.6-0.5-1.2-0.9-1.8-1
	c-2.1-1.9-4.1-4-5.9-6.2c-13.7-16.3-3.1-40.8,17.8-42.6c5.2-0.5,10.1,0.6,14.5,3c2.2,1.2,5.4,3.9,9.5,7.9
	C281.2,52.4,289.4,60.5,297.5,68.7z"/>
<path class="st13" d="M274.4,119.6l0.5-1.6c0.1-0.3,0.4-0.5,0.8-0.5c3.1,0.6,5.8,2.1,9.1,2.3c8.5,0.6,15.9,0,22.2-1.8
	c8.6-2.4,17-6.8,25.1-13.3c0.3-0.2,0.4-0.5,0.4-0.8c0-0.3-0.1-0.5-0.2-0.7c0.5-0.1,0.9-0.3,1-0.4c18.3-18.3,36.9-37,55.9-56
	c6.2-6.2,10.6-9.9,13.1-11c11.2-5.1,23.6-2.6,31.5,6.8c9.2,10.9,7.6,26.4-2.3,36.2c-25.7,25.5-50.2,50.1-73.6,73.7
	c-2.2,2.2-4.5,4.5-6.9,6.9c-8.3,8-20.5,10-30.8,4.4c-2-1.1-4.7-3.3-8.1-6.7C299.5,144.7,286.9,132.2,274.4,119.6z"/>
<path class="st14" d="M297.5,68.7l34.7,34.6c0.1,0.2,0.1,0.4,0.2,0.7c0,0.3-0.1,0.6-0.4,0.8c-8.1,6.4-16.5,10.9-25.1,13.3
	c-6.3,1.8-13.7,2.3-22.2,1.8c-3.2-0.2-5.9-1.7-9.1-2.3c-0.3-0.1-0.7,0.1-0.8,0.5l-0.5,1.6l-37.3-37.3c0.6,0.1,1.2,0.4,1.8,1
	c0.3,0.2,0.6,0.3,0.9,0.1c1.1-0.6,2.2-0.9,3.5-0.9c1.1,0,2.2-0.1,3.3-0.5c4.4-1.5,8.9-2.4,13.5-2.9c1.4-0.1,2.7-0.4,4-0.8
	c1.5-0.4,3-0.7,4.5-0.8c1.5-0.1,3-0.3,4.5-0.6c1.5-0.3,3-0.6,4.6-0.8c1.1-0.1,2.2-0.4,3.4-0.8c1.5-0.5,3-1,4.6-1.1
	c2.5-0.2,4.3-0.4,5.3-0.7c1.2-0.3,2.6-1,4.1-2c0.3-0.2,0.6-0.2,0.8,0c0.4,0.3,0.9,0.4,1.4,0.1c0.4-0.2,0.4-0.4-0.1-0.5
	c0,0-0.1,0-0.1-0.1c-0.1-0.1-0.1-0.2-0.1-0.3C296.9,70.1,297.2,69.4,297.5,68.7z"/>
<path class="st15" d="M446.8,156.4c-0.6-2.5-1.1-4.9-1.3-7.3c-0.1-1.2-0.3-2.4-0.6-3.5c-0.3-1.2-0.6-2.4-1-3.6
	c-0.5-1.7-0.8-3.5-1-5.3c-0.3-2.2-0.7-4.6-1.2-7.3c-0.3-1.5-0.7-2.9-1.1-4.2c-0.5-1.5-0.9-3-1.1-4.5c-0.2-1.1-0.4-2.1-0.7-3.1
	c-0.3-1.1-0.4-2.1-0.5-3.1c-0.4-4.2-1.1-8.5-1.9-13.2c-0.1-0.4,0-0.7,0.1-1.1c0.1-0.3,0.1-0.6,0-0.9c-0.4-1.2-0.6-2.5-0.6-3.8
	c0-0.3,0.1-0.7,0.4-0.9l2-2.3c0.4-0.5,0.3-0.7-0.3-0.5l-0.7,0.2c4.3-4.9,7.8-8,10.2-9.5c13.9-8,30.6-3.3,37.5,11.4
	c3.6,7.8,3.6,15.4-0.2,23c-1.1,2.3-4.3,6.1-9.6,11.4C465.9,137.5,456.4,146.9,446.8,156.4z"/>
<path class="st16" d="M262.5,246.5c4.5-16.5,3.2-31.8-3.8-45.8c-2.5-4.9-5.7-9.4-9.5-13.2c-0.3-0.3-0.6-0.4-1-0.2
	c0.1-0.3,0.1-0.7,0.1-1c0-0.3-0.1-0.5-0.3-0.7c-17.4-17.3-35.3-35.2-53.6-53.7c-8.8-8.9-14.3-13.4-15.4-23.8
	c-1.7-16.8,11.8-30.9,28.8-28.9c6.1,0.7,11.9,3.9,17.4,9.4c24,24,49.4,49.4,76.2,76.2c4.1,4.1,6.9,7.6,8.2,10.3
	c5.6,11.7,2.5,23.4-6.7,32.4c-9.1,9-18.3,18-27.6,27.1C270.2,239.4,266,243.3,262.5,246.5z"/>
<path class="st17" d="M446.8,156.4l-29.5,30.2c-0.8-1.2-1.7-2.3-2.7-3.4c-1.3-1.4-2.3-2.5-2.8-3.3c-11.2-16.1-13.8-34.2-7.8-54.2
	c0.7-1.1,1.5-2.1,2.4-2.9c6.7-6.8,16.9-17.1,30.8-30.8l0.7-0.2c0.7-0.2,0.8,0,0.3,0.5l-2,2.3c-0.2,0.3-0.3,0.6-0.4,0.9
	c-0.1,1.3,0.1,2.6,0.6,3.8c0.1,0.3,0.1,0.6,0,0.9c-0.1,0.3-0.1,0.7-0.1,1.1c0.8,4.6,1.4,9,1.9,13.2c0.1,1,0.3,2,0.5,3.1
	c0.3,1,0.5,2.1,0.7,3.1c0.3,1.5,0.7,3,1.1,4.5c0.4,1.3,0.8,2.7,1.1,4.2c0.5,2.7,0.9,5.1,1.2,7.3c0.2,1.8,0.6,3.6,1,5.3
	c0.4,1.3,0.7,2.5,1,3.6c0.3,1.1,0.5,2.3,0.6,3.5C445.8,151.5,446.2,153.9,446.8,156.4z"/>
<path class="st15" d="M404.1,125.6c-6,20-3.4,38.1,7.8,54.2c0.5,0.8,1.5,1.9,2.8,3.3c1,1.1,1.9,2.2,2.7,3.4
	c20.2,20.5,40.5,40.8,61.1,61c5.5,5.4,8.5,11.8,9.1,19.2c0.3,3.5-0.4,7.3-2.2,11.3c-5.5,12.7-20.8,19.4-33.7,14.2
	c-7-2.9-12.9-9.5-18.2-14.8c-23.2-23.1-46.5-46.5-69.9-70.1c-3.6-3.6-7-7.7-8.5-12.6c-3.4-10.9-0.1-20.5,7.6-28.4
	C376,152.9,389.8,139.3,404.1,125.6z"/>
<path class="st18" d="M248.1,187.2c0.4-0.2,0.7-0.1,1,0.2c3.9,3.9,7.1,8.3,9.5,13.2c7.1,14,8.3,29.3,3.8,45.8
	c-2.4,3.2-5.8,6.9-10.1,10.9c-4.3,4.1-10.4,10.1-18.2,18c-1.7,0.8-2.7-0.3-2.8-3.3c0-0.2-0.2-0.6-0.5-1.2c-0.2-0.3-0.2-0.6-0.1-0.9
	c0.2-0.7,0.2-1.5,0-2.2c-0.2-0.6-0.3-1.4-0.4-2.2c-0.1-1.5-0.3-3.1-0.7-4.7c-0.4-1.7-0.7-3.4-0.8-5c-0.2-1.6-0.4-3.3-0.8-5.1
	c-1.3-6-2.3-12.7-3.2-20c-0.1-0.5-0.3-1.2-0.6-2.2c-0.2-0.7-0.4-1.4-0.4-2.2c-0.2-4.6-0.6-8.2-1.3-10.9c-0.2-0.8-0.8-1-1.9-0.5
	L248.1,187.2z"/>
<path class="st19" d="M390.9,256.5c-2.2,0.4-4.4,0.4-6.8-0.1c-3.5-0.7-5.6-1.1-6.3-1.2c-17.4-1.3-32.6,4-45.5,15.7
	c-0.1,0.1-0.2,0.2-0.2,0.4c-0.1,0.2-0.1,0.3-0.1,0.4c-0.6,0.1-1.4,0.6-2.2,1.4c-20.3,20.3-40.5,40.5-60.7,60.8
	c-6.8,6.9-17.7,9.9-27,6.4c-8.6-3.2-14.3-9.2-16.9-18.2c-2.8-9.5,0.8-19.2,7.6-26c25.8-25.7,51.6-51.6,77.2-77.7
	c9.3-9.5,20.2-14.3,33-8.1c2.5,1.2,6.1,4.1,10.8,8.9C366.2,231.5,378.8,243.8,390.9,256.5z"/>
<path class="st16" d="M234.2,275.4c-5.3,5.4-11.5,12.3-17.2,15.6c-17,9.8-37.6-2.8-38.4-21.9c-0.3-7.5,2.6-14.3,8.7-20.4
	c11.2-11.2,22.4-22.5,33.5-33.8c1.1-0.4,1.7-0.3,1.9,0.5c0.6,2.7,1,6.3,1.3,10.9c0,0.8,0.2,1.5,0.4,2.2c0.3,1,0.5,1.7,0.6,2.2
	c0.9,7.3,2,14,3.2,20c0.4,1.8,0.6,3.5,0.8,5.1c0.1,1.6,0.4,3.3,0.8,5c0.4,1.6,0.6,3.2,0.7,4.7c0.1,0.8,0.2,1.6,0.4,2.2
	c0.2,0.7,0.2,1.5,0,2.2c-0.1,0.3,0,0.6,0.1,0.9c0.3,0.6,0.5,0.9,0.5,1.2C231.5,275.1,232.5,276.2,234.2,275.4z"/>
<path class="st20" d="M390.9,256.5l27.9,27.8c-1,0.1-1.7-0.1-2.2-0.7c-0.3-0.3-0.7-0.4-1.1-0.4c-1,0.2-2.1,0.2-3.2-0.1
	c-0.4-0.1-0.7,0-1,0.2c-0.5,0.3-0.8,0.3-1.1-0.1c-0.1-0.2-0.4-0.3-0.6-0.2c-0.9,0.4-1.7,0.4-2.6,0c-0.3-0.1-0.5-0.1-0.8,0l-0.8,0.5
	c-0.3,0.2-0.5,0.3-0.8,0.3c-0.6,0.1-1.2,0.4-1.6,0.8c-0.2,0.2-0.5,0.3-0.8,0.4c-7.6,1.5-15.2,2.9-22.7,4.2c-5.2,0.9-10.2,2-14.8,3.2
	c-1.2,0.3-2.4,0.5-3.6,0.6c-1.2,0.1-2.4,0.6-3.6,1.4c-0.3,0.2-0.4,0.5-0.1,0.8c0.4,0.4,0.5,0.8,0.3,1.2c-8-7.9-16-15.9-23.9-23.9
	c-0.4-0.5-1-0.8-1.6-1c0-0.1,0-0.2,0.1-0.4c0-0.1,0.1-0.3,0.2-0.4c12.9-11.7,28.1-16.9,45.5-15.7c0.7,0,2.8,0.4,6.3,1.2
	C386.4,256.9,388.7,256.9,390.9,256.5z"/>
<path class="st19" d="M418.7,284.3c3.9,3.8,7.9,7.6,11.8,11.4c4.7,4.6,7.5,10.1,8.3,16.5c2.1,16.2-11.5,30.2-27.7,29.4
	c-7.4-0.4-12.9-4-18-9.2c-11.8-12-23.7-24-35.6-35.9c0.2-0.4,0.1-0.8-0.3-1.2c-0.3-0.3-0.3-0.5,0.1-0.8c1.3-0.8,2.5-1.3,3.6-1.4
	c1.2-0.1,2.4-0.3,3.6-0.6c4.7-1.2,9.6-2.3,14.8-3.2c7.5-1.3,15.1-2.7,22.7-4.2c0.3-0.1,0.5-0.2,0.8-0.4c0.5-0.5,1-0.7,1.6-0.8
	c0.3-0.1,0.6-0.2,0.8-0.3l0.8-0.5c0.3-0.2,0.5-0.2,0.8,0c0.9,0.4,1.7,0.4,2.6,0c0.2-0.1,0.5,0,0.6,0.2c0.3,0.4,0.7,0.5,1.1,0.1
	c0.3-0.2,0.7-0.3,1-0.2c1.1,0.2,2.1,0.3,3.2,0.1c0.4-0.1,0.8,0,1.1,0.4C417,284.1,417.7,284.4,418.7,284.3z"/>
</svg>
